<?xml version="1.0" encoding="utf-8"?>
<!-- Generator: Adobe Illustrator 27.0.0, SVG Export Plug-In . SVG Version: 6.00 Build 0)  -->
<svg version="1.1" id="Layer_1" xmlns="http://www.w3.org/2000/svg" xmlns:xlink="http://www.w3.org/1999/xlink" x="0px" y="0px"
	 viewBox="0 0 1171.7 1058.9" style="enable-background:new 0 0 1171.7 1058.9;" xml:space="preserve">
<style type="text/css">
	.st0{fill:#8CD43F;}
	.st1{fill:#FFFFFF;}
</style>
<g>
	<g>
		<path class="st0" d="M885.1,267.2L885.1,267.2l-598.6,0v0h-10.7V781h0v10.7h620v-3.5V781V267.2H885.1z M885.1,277.9V760H286.5
			V277.9H885.1z M286.5,781v-10.2h598.6V781H286.5z"/>
	</g>
	<g>
		<g>
			<polygon class="st0" points="572.8,560.9 617.5,531.2 608.2,308.6 571,308.6 533.9,308.6 525.2,517.3 572.8,485.6 			"/>
			<polygon class="st0" points="422.7,746.5 422.7,585.5 492.7,538.9 483.1,308.6 446,308.6 408.8,308.6 390.5,746.5 			"/>
			<path class="st0" d="M554.7,595.5v0.4l-0.7,0.5v-75.8l-112.5,74.9v151h90.1H554h0.7h90h22.5h0.7h113.2V520.6L667.9,596v-75.3
				l-0.7,0.5v-0.5L554.7,595.5z M527.5,632.6h-61.8v-30.2h61.8V632.6z M642.2,632.6h-61.8v-30.2h61.8V632.6z M695.2,603.7H757v30.2
				h-61.8V603.7z"/>
		</g>
		<g>
			<path class="st1" d="M576,689.2c0,8.1-3,13.5-8.8,16l8.4,31.8c0.4,1.5-0.4,2.2-1.7,2.2h-12.6c-1.2,0-1.8-0.6-2.1-1.7l-8.1-30.8
				h-8.4v30.5c0,1.2-0.7,1.9-1.9,1.9h-12.6c-1.2,0-1.9-0.7-1.9-1.9v-93.1c0-1.2,0.7-1.9,1.9-1.9h30.4c11.4,0,17.5,6.1,17.5,17.5
				V689.2z M554.7,690.6c3.2,0,4.8-1.7,4.8-4.8V663c0-3.2-1.7-4.8-4.8-4.8h-12v32.5H554.7z"/>
			<path class="st1" d="M619.1,642.1c11.4,0,17.5,6.1,17.5,17.5v12.8c0,1.2-0.6,1.9-1.9,1.9h-12.6c-1.2,0-1.9-0.7-1.9-1.9V663
				c0-3.2-1.6-4.8-4.8-4.8h-5.8c-3,0-4.8,1.7-4.8,4.8v16.7l28.8,9.5c2.1,0.8,3.2,2.2,3.2,4.5v28c0,11.4-6.1,17.5-17.5,17.5h-13.6
				c-11.3,0-17.5-6.1-17.5-17.5v-12.7c0-1.3,0.7-1.9,1.9-1.9h12.6c1.3,0,1.9,0.6,1.9,1.9v9.3c0,3.3,1.8,4.8,4.8,4.8h5.8
				c3.2,0,4.8-1.6,4.8-4.8v-16.1l-28.7-9.5c-2.2-0.7-3.3-2.2-3.3-4.5v-28.6c0-11.4,6.2-17.5,17.5-17.5H619.1z"/>
			<path class="st1" d="M680.7,644.1c0-1.2,0.7-1.9,1.9-1.9h12.5c1.5,0,2.1,0.7,2.1,1.9v93.1c0,1.2-0.6,1.9-2.1,1.9h-12.5
				c-1.2,0-1.9-0.7-1.9-1.9v-38.5h-15.5v38.5c0,1.2-0.7,1.9-1.9,1.9h-12.5c-1.5,0-2.1-0.7-2.1-1.9v-93.1c0-1.2,0.6-1.9,2.1-1.9h12.5
				c1.2,0,1.9,0.7,1.9,1.9v38.5h15.5V644.1z"/>
		</g>
	</g>
</g>
</svg>
